<?xml version="1.0" encoding="utf-8"?>
<!-- Generator: Adobe Illustrator 26.0.0, SVG Export Plug-In . SVG Version: 6.00 Build 0)  -->
<svg version="1.1" id="Capa_1" xmlns="http://www.w3.org/2000/svg" xmlns:xlink="http://www.w3.org/1999/xlink" x="0px" y="0px"
	 viewBox="0 0 800 800" style="enable-background:new 0 0 800 800;" xml:space="preserve">
<style type="text/css">
	.st0{fill:none;stroke:#FFFFFF;stroke-width:10;stroke-miterlimit:10;}
	.st1{fill:#FFFFFF;}
</style>
<g id="SVGRepo_bgCarrier">
</g>
<g id="SVGRepo_tracerCarrier">
</g>
<circle class="st0" cx="400" cy="400" r="350"/>
<g>
	<g>
		<g>
			<path class="st1" d="M174.9,293.2c-17,0-30.9,13.9-30.9,30.9V476c0,17,13.9,30.9,30.9,30.9H226V293.2H174.9z M205.4,486.3h-30.5
				c-5.7,0-10.3-4.6-10.3-10.3V324.1c0-5.7,4.6-10.3,10.3-10.3h30.5L205.4,486.3L205.4,486.3z"/>
		</g>
	</g>
	<g>
		<g>
			<path class="st1" d="M440,189.1c-10.1-5.1-22-4.2-30.9,2.3L252.7,298v204l156.2,106.5c5.2,3.8,11.4,5.7,17.6,5.7
				c4.6,0,9.3-1.1,13.6-3.3c10.1-5.1,16.3-15.3,16.3-26.6V215.7C456.3,204.4,450.1,194.2,440,189.1z M435.7,584.3
				c0,5.1-3.5,7.5-5.1,8.3c-1.5,0.8-5.5,2.2-9.9-1L273.3,491.1V308.9L421,208.2c4.2-3,8.2-1.5,9.7-0.8c1.5,0.8,5.1,3.1,5.1,8.3
				L435.7,584.3L435.7,584.3z"/>
		</g>
	</g>
	<g>
		<g>
			<polygon class="st1" points="656,333.2 641.4,318.6 574.7,385.4 507.9,318.6 493.3,333.2 560.1,400 493.3,466.8 507.9,481.4 
				574.7,414.6 641.4,481.4 656,466.8 589.2,400 			"/>
		</g>
	</g>
</g>
</svg>
